<svg version="1.1" id="Layer_1" xmlns="http://www.w3.org/2000/svg" xmlns:xlink="http://www.w3.org/1999/xlink" x="0px" y="0px"
	 width="100%" viewBox="0 0 1500 1500" enable-background="new 0 0 1500 1500" xml:space="preserve">
<path fill="#000000" opacity="1.000000" stroke="none" 
	d="
M1501.000000,670.000000 
	C1501.000000,946.964355 1501.000000,1223.928711 1501.000000,1500.946533 
	C1001.099976,1500.946533 501.199890,1500.946533 1.000000,1500.946533 
	C1.000000,1224.302490 1.000000,947.604858 1.408243,670.459351 
	C3.985657,676.929932 5.915840,683.934509 8.368092,690.751160 
	C16.228693,712.601868 26.221655,733.487000 39.381214,752.612000 
	C51.760944,770.603699 66.056183,786.985107 82.688171,801.391602 
	C99.970825,816.361633 118.692871,828.896362 139.919022,837.226318 
	C151.374222,841.721741 163.312622,845.799255 175.402786,847.650879 
	C189.502136,849.810059 204.000626,849.641846 218.335251,849.854919 
	C224.462234,849.946045 230.731812,848.963196 236.731873,847.580200 
	C260.920624,842.004700 282.234711,831.064148 298.455292,811.850647 
	C305.112366,803.965271 311.553040,795.633789 316.521545,786.637878 
	C329.295502,763.509521 333.867950,738.063416 334.891815,711.959167 
	C335.240479,703.069397 334.787140,694.084473 333.892670,685.224548 
	C332.587372,672.294617 331.624939,659.179871 328.594666,646.607117 
	C323.129364,623.930969 314.917114,602.156372 303.032288,581.877136 
	C288.532562,557.136169 272.150055,533.856384 249.821045,515.550415 
	C237.445557,505.404602 224.802139,495.198029 210.984482,487.278198 
	C180.680649,469.908966 147.937820,461.807129 112.587646,464.763702 
	C99.999557,465.816528 87.819046,467.694916 76.083153,472.074036 
	C55.646511,479.699707 38.546310,492.193268 25.291517,509.469116 
	C14.842241,523.088318 7.101818,538.245056 2.901865,555.049316 
	C2.790039,555.496704 1.656881,555.688843 1.000004,556.000000 
	C1.000000,371.028870 1.000000,186.057739 1.000000,1.043303 
	C500.893097,1.043303 1000.786194,1.043303 1501.000000,1.043303 
	C1501.000000,185.697464 1501.000000,370.395111 1500.677002,555.849915 
	C1499.906250,555.967834 1499.330811,555.383240 1499.029785,554.681030 
	C1494.745605,544.683411 1491.119873,534.346619 1486.114014,524.727173 
	C1475.479736,504.291992 1459.362061,488.988098 1439.172974,478.053162 
	C1421.916260,468.706482 1403.129150,464.444214 1383.729614,464.224457 
	C1370.165161,464.070770 1356.260132,464.521332 1343.059814,467.313904 
	C1306.328247,475.084656 1274.677734,493.254456 1247.694214,519.105652 
	C1237.069092,529.284851 1227.608398,540.783569 1218.376953,552.290649 
	C1201.291138,573.588379 1189.238159,597.799500 1180.106445,623.387939 
	C1172.399170,644.984558 1168.012573,667.469727 1167.230469,690.346436 
	C1166.702271,705.802002 1167.161255,721.499695 1169.320435,736.786560 
	C1172.090698,756.399170 1178.188965,775.213989 1188.695679,792.435242 
	C1196.175537,804.695068 1205.137085,815.651123 1216.236450,824.509766 
	C1235.101807,839.566650 1256.960815,848.199585 1281.021729,849.822571 
	C1299.897949,851.095825 1318.923584,850.572571 1337.402832,845.770325 
	C1370.766479,837.099915 1399.661011,819.988525 1424.591675,796.566223 
	C1435.912720,785.929993 1446.132690,773.921143 1455.647461,761.604248 
	C1476.328491,734.832642 1490.778564,704.838867 1499.059937,671.949951 
	C1499.252563,671.185608 1500.333496,670.644958 1501.000000,670.000000 
M1319.000000,1273.489746 
	C1318.333496,1258.820557 1318.399902,1244.070312 1316.786865,1229.505981 
	C1315.279419,1215.895752 1312.580688,1202.337158 1309.293457,1189.030762 
	C1306.766113,1178.800781 1303.001465,1168.792725 1298.932861,1159.042480 
	C1285.898438,1127.806152 1273.038452,1096.474609 1258.986938,1065.692993 
	C1249.640015,1045.217651 1238.761230,1025.403931 1227.846924,1005.693298 
	C1218.416138,988.661499 1208.395874,971.918213 1197.876709,955.535034 
	C1178.335327,925.100037 1157.508789,895.552368 1133.703125,868.236145 
	C1120.970459,853.625671 1108.250488,838.992310 1095.097046,824.764648 
	C1087.798706,816.870361 1079.766479,809.629211 1071.803711,802.380676 
	C1060.142212,791.765381 1048.609009,780.958862 1036.355957,771.056824 
	C1021.987793,759.445496 1007.305481,748.128052 992.024048,737.767822 
	C976.320984,727.121704 959.894226,717.503845 943.489685,707.941162 
	C920.798584,694.713623 897.074341,683.475220 872.172668,675.136719 
	C853.155334,668.768677 833.868469,662.973328 814.358887,658.377686 
	C797.242920,654.345886 779.713013,651.586792 761.969482,652.052673 
	C746.126831,652.468506 730.255981,652.853210 714.473633,654.165710 
	C703.689453,655.062622 692.895081,656.931824 682.352295,659.415222 
	C657.792603,665.200195 633.459106,672.009460 610.599182,682.892517 
	C586.662231,694.288330 562.295105,705.109924 539.567810,718.624023 
	C517.127686,731.967224 495.896027,747.583923 475.259583,763.648926 
	C456.135406,778.536682 437.944550,794.753052 420.378510,811.472595 
	C405.687195,825.455933 392.248291,840.793762 378.714355,855.942322 
	C368.273376,867.628906 357.859680,879.453125 348.650940,892.102295 
	C332.400482,914.424316 316.322540,936.944214 301.574707,960.268005 
	C286.190613,984.598022 271.394196,1009.428528 258.291351,1035.038208 
	C243.225418,1064.484863 229.898132,1094.849487 216.568298,1125.146606 
	C205.717911,1149.808228 194.851181,1174.633667 189.570786,1201.223022 
	C186.441116,1216.982178 184.309830,1233.048462 183.251953,1249.077026 
	C182.360703,1262.581055 183.521942,1276.235474 184.038452,1289.813354 
	C184.611389,1304.874878 189.079391,1319.048584 195.309204,1332.581055 
	C204.934372,1353.489014 218.908432,1370.970215 237.365906,1384.980225 
	C261.122101,1403.012085 288.003143,1412.037720 317.492371,1412.809570 
	C333.136780,1413.218994 348.854065,1411.979858 364.498108,1410.900269 
	C376.697723,1410.058350 389.056122,1409.336182 400.955383,1406.763550 
	C428.171967,1400.879150 455.174438,1393.991089 482.219757,1387.331421 
	C516.128479,1378.981689 549.993835,1370.456299 583.876221,1361.999512 
	C615.259216,1354.166626 646.692139,1346.525879 678.002502,1338.412231 
	C697.352417,1333.397949 716.903259,1329.264282 736.801147,1328.268311 
	C751.068176,1327.554077 765.571777,1328.443848 779.766357,1330.232544 
	C795.760620,1332.247681 811.692322,1335.397705 827.360962,1339.238159 
	C874.711243,1350.844116 921.897461,1363.117188 969.192566,1374.950806 
	C1007.758057,1384.600220 1046.278320,1394.475220 1085.040161,1403.273926 
	C1101.931519,1407.107910 1119.355713,1408.663208 1136.582153,1410.916138 
	C1143.100464,1411.768677 1149.803467,1411.221313 1156.317139,1412.095215 
	C1173.000244,1414.333252 1189.668335,1413.385986 1206.055298,1410.731079 
	C1222.602539,1408.049927 1238.182739,1401.926514 1252.694336,1393.113281 
	C1270.036987,1382.580688 1284.627686,1369.112061 1295.758789,1352.350586 
	C1311.338379,1328.890503 1319.300049,1302.841797 1319.000000,1273.489746 
M318.487854,396.991516 
	C324.943604,415.225342 333.272675,432.573120 342.761932,449.420319 
	C353.496277,468.478119 366.636536,485.751373 381.392487,501.767609 
	C394.301788,515.779541 408.939117,527.865051 424.860870,538.402466 
	C450.602875,555.439148 478.679199,566.547302 509.458405,568.739563 
	C533.466492,570.449524 557.409424,569.075745 580.498108,560.142883 
	C606.238586,550.184021 626.958435,533.792786 643.703186,512.434814 
	C658.610962,493.419952 668.824036,471.757629 675.825500,448.582336 
	C681.529968,429.700104 685.011108,410.336273 685.754700,390.762421 
	C686.599609,368.521454 686.613159,346.221191 683.172119,324.007050 
	C680.421814,306.251770 676.637939,288.829224 671.295288,271.714355 
	C664.525391,250.027496 655.339233,229.385422 643.949402,209.750107 
	C629.396667,184.662399 611.912292,161.961319 590.171997,142.518829 
	C573.510498,127.618355 555.434326,115.187431 535.238525,105.539650 
	C513.075806,94.952248 489.727051,89.854187 465.412598,89.156158 
	C455.606873,88.874649 445.739014,90.188972 435.921295,91.032112 
	C421.961365,92.231003 408.778809,96.527557 396.217712,102.444397 
	C379.496735,110.320732 365.038177,121.328354 352.402954,134.938965 
	C342.380188,145.735504 333.924866,157.511429 326.965088,170.420547 
	C317.604126,187.783386 311.165802,206.141647 306.656555,225.393707 
	C302.457123,243.323120 300.592682,261.443451 300.198944,279.671509 
	C299.882538,294.317230 300.787781,309.052734 302.169312,323.652039 
	C303.310577,335.712463 305.428986,347.745636 308.054047,359.582520 
	C310.797516,371.953186 314.663544,384.074921 318.487854,396.991516 
M961.455872,569.000000 
	C971.323853,567.826721 981.329712,567.324768 991.029785,565.333374 
	C1008.585571,561.729431 1024.992920,554.979309 1040.711670,546.178772 
	C1055.088379,538.129517 1068.547974,528.855530 1080.492310,517.707214 
	C1091.372925,507.551636 1101.902222,496.773010 1111.039917,485.062317 
	C1121.326782,471.878754 1130.680908,457.803284 1139.015991,443.297119 
	C1153.746338,417.660370 1164.512085,390.251099 1170.252319,361.162292 
	C1173.483765,344.787476 1176.957153,328.227295 1177.650391,311.638977 
	C1178.702026,286.478088 1179.050171,261.204590 1174.167480,236.137421 
	C1170.579956,217.719833 1165.649536,199.810562 1157.890625,182.801102 
	C1147.093750,159.132172 1132.423218,138.234955 1112.114990,121.550232 
	C1099.769287,111.407242 1086.210083,103.505989 1071.243896,97.995888 
	C1050.269043,90.273605 1028.662720,88.533279 1006.417664,89.779373 
	C990.190125,90.688385 974.682922,93.817009 959.393494,98.965858 
	C942.787109,104.558205 927.356934,112.599411 913.143799,122.590462 
	C895.927856,134.692291 880.323486,148.731903 866.526123,164.811951 
	C853.173462,180.373810 841.391052,196.955444 831.640137,214.927139 
	C820.271912,235.879593 811.249390,257.789734 804.497253,280.745880 
	C796.485962,307.982910 793.283081,335.810272 792.094360,363.971191 
	C791.796448,371.030090 792.425720,378.159485 793.050415,385.219147 
	C794.201782,398.229858 795.249512,411.272583 797.100708,424.192993 
	C799.598145,441.622925 804.903564,458.402252 812.214355,474.349487 
	C822.792297,497.423401 836.501221,518.321350 856.262634,534.950500 
	C869.654968,546.220215 884.277710,554.960876 900.636963,561.034729 
	C920.001709,568.224426 940.071106,569.752686 961.455872,569.000000 
z"/>
<path fill="#EEF7F6" opacity="1.000000" stroke="none" 
	d="
M1501.000000,669.531372 
	C1500.333496,670.644958 1499.252563,671.185608 1499.059937,671.949951 
	C1490.778564,704.838867 1476.328491,734.832642 1455.647461,761.604248 
	C1446.132690,773.921143 1435.912720,785.929993 1424.591675,796.566223 
	C1399.661011,819.988525 1370.766479,837.099915 1337.402832,845.770325 
	C1318.923584,850.572571 1299.897949,851.095825 1281.021729,849.822571 
	C1256.960815,848.199585 1235.101807,839.566650 1216.236450,824.509766 
	C1205.137085,815.651123 1196.175537,804.695068 1188.695679,792.435242 
	C1178.188965,775.213989 1172.090698,756.399170 1169.320435,736.786560 
	C1167.161255,721.499695 1166.702271,705.802002 1167.230469,690.346436 
	C1168.012573,667.469727 1172.399170,644.984558 1180.106445,623.387939 
	C1189.238159,597.799500 1201.291138,573.588379 1218.376953,552.290649 
	C1227.608398,540.783569 1237.069092,529.284851 1247.694214,519.105652 
	C1274.677734,493.254456 1306.328247,475.084656 1343.059814,467.313904 
	C1356.260132,464.521332 1370.165161,464.070770 1383.729614,464.224457 
	C1403.129150,464.444214 1421.916260,468.706482 1439.172974,478.053162 
	C1459.362061,488.988098 1475.479736,504.291992 1486.114014,524.727173 
	C1491.119873,534.346619 1494.745605,544.683411 1499.029785,554.681030 
	C1499.330811,555.383240 1499.906250,555.967834 1500.677002,556.303528 
	C1501.000000,593.687561 1501.000000,631.375122 1501.000000,669.531372 
M1256.008423,530.487305 
	C1245.639282,542.524597 1234.704590,554.127136 1225.034912,566.702332 
	C1210.928223,585.048035 1200.339355,605.569153 1192.496826,627.296143 
	C1187.876953,640.094849 1184.070679,653.313965 1181.372314,666.642334 
	C1178.889893,678.904846 1177.646240,691.543213 1177.248291,704.060242 
	C1176.966309,712.933167 1178.650513,721.936401 1180.081299,730.780457 
	C1182.348633,744.796387 1186.455200,758.321533 1192.625000,771.156616 
	C1201.272949,789.146606 1213.145386,804.595581 1229.168335,816.632507 
	C1248.005005,830.783264 1269.365356,838.612793 1292.787476,839.767395 
	C1301.625366,840.203064 1310.646240,838.341064 1319.491699,836.943665 
	C1343.775391,833.107361 1365.668213,822.912537 1385.809814,809.411987 
	C1405.587036,796.155762 1423.205566,780.268372 1438.197876,761.494263 
	C1450.049561,746.653076 1461.082275,731.265991 1469.121216,714.137573 
	C1476.116943,699.232056 1482.101685,683.748962 1487.214600,668.090454 
	C1492.924561,650.603149 1496.256226,632.421326 1495.859863,613.918396 
	C1495.618896,602.658508 1495.276855,591.122864 1492.680908,580.260498 
	C1489.308594,566.149963 1484.861206,552.013306 1478.673218,538.929932 
	C1470.833618,522.354065 1458.888672,508.461334 1443.940552,497.395477 
	C1427.098877,484.927856 1408.147217,477.503937 1387.524170,475.189789 
	C1371.638062,473.407166 1355.740479,475.632874 1340.450439,480.310577 
	C1308.514526,490.080872 1280.730835,507.071106 1256.008423,530.487305 
z"/>
<path fill="#EEF7F6" opacity="1.000000" stroke="none" 
	d="
M1.000004,556.468628 
	C1.656881,555.688843 2.790039,555.496704 2.901865,555.049316 
	C7.101818,538.245056 14.842241,523.088318 25.291517,509.469116 
	C38.546310,492.193268 55.646511,479.699707 76.083153,472.074036 
	C87.819046,467.694916 99.999557,465.816528 112.587646,464.763702 
	C147.937820,461.807129 180.680649,469.908966 210.984482,487.278198 
	C224.802139,495.198029 237.445557,505.404602 249.821045,515.550415 
	C272.150055,533.856384 288.532562,557.136169 303.032288,581.877136 
	C314.917114,602.156372 323.129364,623.930969 328.594666,646.607117 
	C331.624939,659.179871 332.587372,672.294617 333.892670,685.224548 
	C334.787140,694.084473 335.240479,703.069397 334.891815,711.959167 
	C333.867950,738.063416 329.295502,763.509521 316.521545,786.637878 
	C311.553040,795.633789 305.112366,803.965271 298.455292,811.850647 
	C282.234711,831.064148 260.920624,842.004700 236.731873,847.580200 
	C230.731812,848.963196 224.462234,849.946045 218.335251,849.854919 
	C204.000626,849.641846 189.502136,849.810059 175.402786,847.650879 
	C163.312622,845.799255 151.374222,841.721741 139.919022,837.226318 
	C118.692871,828.896362 99.970825,816.361633 82.688171,801.391602 
	C66.056183,786.985107 51.760944,770.603699 39.381214,752.612000 
	C26.221655,733.487000 16.228693,712.601868 8.368092,690.751160 
	C5.915840,683.934509 3.985657,676.929932 1.408243,670.005737 
	C1.000000,632.312439 1.000000,594.624878 1.000004,556.468628 
M256.992859,826.509888 
	C268.939209,820.384949 279.206146,812.205200 288.333130,802.311584 
	C299.817505,789.862610 308.800507,775.883179 313.841400,759.845093 
	C318.074738,746.376343 320.993774,732.458557 323.830414,718.603516 
	C325.072144,712.538452 325.412079,706.064209 324.836670,699.899475 
	C323.720520,687.940918 321.941559,676.023560 319.939758,664.173157 
	C316.737061,645.213501 310.261444,627.245728 302.324158,609.797546 
	C294.891296,593.458374 285.491760,578.242920 274.927399,563.785034 
	C263.358337,547.952271 250.407532,533.267578 235.204605,520.820862 
	C217.150742,506.040100 197.699966,493.412994 175.653244,485.272705 
	C152.630234,476.771881 129.241989,471.918793 104.507210,476.901978 
	C82.332443,481.369354 63.127346,491.270966 46.842190,506.751923 
	C34.218636,518.752075 25.010798,533.139832 18.248770,549.228027 
	C11.286756,565.792053 7.518780,583.106995 6.165829,600.845154 
	C5.102787,614.782410 6.543644,628.710022 8.882357,642.585938 
	C12.980909,666.903259 20.699688,690.008972 31.661812,711.940491 
	C37.611691,723.844238 44.686764,735.275391 52.152252,746.312378 
	C65.951347,766.712830 82.899750,784.409119 102.270027,799.554565 
	C118.174370,811.990051 135.577942,822.046814 154.583603,829.254578 
	C170.121384,835.147095 186.061920,839.364136 202.632446,839.853821 
	C221.564590,840.413269 239.506973,835.639038 256.992859,826.509888 
z"/>
<path fill="#EEF7F6" opacity="1.000000" stroke="none" 
	d="
M1319.000000,1273.987305 
	C1319.300049,1302.841797 1311.338379,1328.890503 1295.758789,1352.350586 
	C1284.627686,1369.112061 1270.036987,1382.580688 1252.694336,1393.113281 
	C1238.182739,1401.926514 1222.602539,1408.049927 1206.055298,1410.731079 
	C1189.668335,1413.385986 1173.000244,1414.333252 1156.317139,1412.095215 
	C1149.803467,1411.221313 1143.100464,1411.768677 1136.582153,1410.916138 
	C1119.355713,1408.663208 1101.931519,1407.107910 1085.040161,1403.273926 
	C1046.278320,1394.475220 1007.758057,1384.600220 969.192566,1374.950806 
	C921.897461,1363.117188 874.711243,1350.844116 827.360962,1339.238159 
	C811.692322,1335.397705 795.760620,1332.247681 779.766357,1330.232544 
	C765.571777,1328.443848 751.068176,1327.554077 736.801147,1328.268311 
	C716.903259,1329.264282 697.352417,1333.397949 678.002502,1338.412231 
	C646.692139,1346.525879 615.259216,1354.166626 583.876221,1361.999512 
	C549.993835,1370.456299 516.128479,1378.981689 482.219757,1387.331421 
	C455.174438,1393.991089 428.171967,1400.879150 400.955383,1406.763550 
	C389.056122,1409.336182 376.697723,1410.058350 364.498108,1410.900269 
	C348.854065,1411.979858 333.136780,1413.218994 317.492371,1412.809570 
	C288.003143,1412.037720 261.122101,1403.012085 237.365906,1384.980225 
	C218.908432,1370.970215 204.934372,1353.489014 195.309204,1332.581055 
	C189.079391,1319.048584 184.611389,1304.874878 184.038452,1289.813354 
	C183.521942,1276.235474 182.360703,1262.581055 183.251953,1249.077026 
	C184.309830,1233.048462 186.441116,1216.982178 189.570786,1201.223022 
	C194.851181,1174.633667 205.717911,1149.808228 216.568298,1125.146606 
	C229.898132,1094.849487 243.225418,1064.484863 258.291351,1035.038208 
	C271.394196,1009.428528 286.190613,984.598022 301.574707,960.268005 
	C316.322540,936.944214 332.400482,914.424316 348.650940,892.102295 
	C357.859680,879.453125 368.273376,867.628906 378.714355,855.942322 
	C392.248291,840.793762 405.687195,825.455933 420.378510,811.472595 
	C437.944550,794.753052 456.135406,778.536682 475.259583,763.648926 
	C495.896027,747.583923 517.127686,731.967224 539.567810,718.624023 
	C562.295105,705.109924 586.662231,694.288330 610.599182,682.892517 
	C633.459106,672.009460 657.792603,665.200195 682.352295,659.415222 
	C692.895081,656.931824 703.689453,655.062622 714.473633,654.165710 
	C730.255981,652.853210 746.126831,652.468506 761.969482,652.052673 
	C779.713013,651.586792 797.242920,654.345886 814.358887,658.377686 
	C833.868469,662.973328 853.155334,668.768677 872.172668,675.136719 
	C897.074341,683.475220 920.798584,694.713623 943.489685,707.941162 
	C959.894226,717.503845 976.320984,727.121704 992.024048,737.767822 
	C1007.305481,748.128052 1021.987793,759.445496 1036.355957,771.056824 
	C1048.609009,780.958862 1060.142212,791.765381 1071.803711,802.380676 
	C1079.766479,809.629211 1087.798706,816.870361 1095.097046,824.764648 
	C1108.250488,838.992310 1120.970459,853.625671 1133.703125,868.236145 
	C1157.508789,895.552368 1178.335327,925.100037 1197.876709,955.535034 
	C1208.395874,971.918213 1218.416138,988.661499 1227.846924,1005.693298 
	C1238.761230,1025.403931 1249.640015,1045.217651 1258.986938,1065.692993 
	C1273.038452,1096.474609 1285.898438,1127.806152 1298.932861,1159.042480 
	C1303.001465,1168.792725 1306.766113,1178.800781 1309.293457,1189.030762 
	C1312.580688,1202.337158 1315.279419,1215.895752 1316.786865,1229.505981 
	C1318.399902,1244.070312 1318.333496,1258.820557 1319.000000,1273.987305 
M569.503601,716.997620 
	C562.762939,720.762085 555.831726,724.225342 549.316162,728.345764 
	C527.169312,742.351562 505.077637,756.484070 485.064636,773.506348 
	C467.336792,788.585022 449.270935,803.343018 432.459869,819.400024 
	C417.069824,834.099670 402.911133,850.125610 388.678528,865.987549 
	C378.214203,877.649780 367.820190,889.491211 358.612457,902.139099 
	C342.363342,924.459229 326.284882,946.976318 311.542603,970.300659 
	C296.164673,994.630554 281.386902,1019.467773 268.286072,1045.075317 
	C253.222076,1074.520386 239.876740,1104.874023 226.551849,1135.170166 
	C215.705765,1159.830444 204.855896,1184.658203 199.554977,1211.240845 
	C196.445190,1226.835693 194.760849,1242.750610 193.170288,1258.595459 
	C192.486130,1265.411133 193.701019,1272.412354 193.991501,1279.331787 
	C194.631424,1294.575439 199.027206,1308.904541 205.317932,1322.591064 
	C214.930237,1343.503906 228.915863,1360.976807 247.371078,1374.984619 
	C271.124664,1393.014404 298.007629,1401.825684 327.490936,1402.847168 
	C336.628326,1403.163696 345.845734,1401.843628 354.995789,1400.956543 
	C367.010376,1399.791504 379.197784,1399.269653 390.949646,1396.771729 
	C415.507629,1391.551880 439.854248,1385.321289 464.241211,1379.317017 
	C498.147400,1370.968994 532.014893,1362.463379 565.891602,1353.996094 
	C598.672974,1345.802734 631.469055,1337.666504 664.214050,1329.329712 
	C691.310669,1322.430664 718.579773,1316.959229 746.746033,1318.013550 
	C762.583557,1318.606323 778.578918,1318.156494 794.207031,1320.317749 
	C811.559570,1322.717773 828.654175,1327.231445 845.720642,1331.399780 
	C881.201782,1340.065674 916.589355,1349.114502 952.017151,1357.998901 
	C983.387878,1365.865967 1014.729858,1373.850586 1046.142212,1381.548340 
	C1076.253296,1388.927124 1106.088989,1397.615601 1137.233765,1400.086914 
	C1152.401733,1401.290283 1167.443848,1403.192749 1182.774292,1402.154663 
	C1199.489380,1401.022827 1215.379883,1397.005371 1230.276733,1389.822876 
	C1254.042969,1378.364014 1273.339722,1361.692749 1287.583984,1339.087891 
	C1301.522583,1316.968384 1308.520020,1293.042725 1308.937012,1267.083862 
	C1309.031982,1261.171631 1308.586304,1255.219238 1307.945923,1249.333496 
	C1306.713257,1238.004150 1306.227539,1226.444214 1303.491699,1215.463379 
	C1299.584717,1199.781982 1294.859985,1184.162598 1288.835571,1169.179810 
	C1276.212524,1137.785278 1263.102783,1106.554199 1249.049072,1075.778442 
	C1239.633545,1055.159668 1228.605103,1035.243652 1217.640259,1015.376404 
	C1208.389526,998.615173 1198.727051,982.028442 1188.296509,965.982239 
	C1168.504395,935.533813 1147.768311,905.712097 1123.788330,878.330811 
	C1110.034912,862.626709 1096.369629,846.817200 1081.975586,831.711731 
	C1071.269043,820.476074 1059.644531,810.084778 1048.081543,799.704407 
	C1037.003540,789.759460 1025.871460,779.798767 1014.062317,770.760803 
	C992.785156,754.476685 971.218079,738.479919 947.448608,725.912415 
	C925.699036,714.413025 904.150940,702.316711 881.602844,692.597412 
	C852.343506,679.985229 821.853271,670.758118 790.148804,665.851562 
	C771.763550,663.006226 753.459534,660.304382 734.887146,663.050476 
	C718.545532,665.466736 701.959167,667.140808 686.042908,671.295471 
	C665.131348,676.754089 644.412903,683.405090 624.277649,691.252686 
	C605.739685,698.477783 588.083313,707.964722 569.503601,716.997620 
z"/>
<path fill="#EEF7F6" opacity="1.000000" stroke="none" 
	d="
M318.263367,396.648499 
	C314.663544,384.074921 310.797516,371.953186 308.054047,359.582520 
	C305.428986,347.745636 303.310577,335.712463 302.169312,323.652039 
	C300.787781,309.052734 299.882538,294.317230 300.198944,279.671509 
	C300.592682,261.443451 302.457123,243.323120 306.656555,225.393707 
	C311.165802,206.141647 317.604126,187.783386 326.965088,170.420547 
	C333.924866,157.511429 342.380188,145.735504 352.402954,134.938965 
	C365.038177,121.328354 379.496735,110.320732 396.217712,102.444397 
	C408.778809,96.527557 421.961365,92.231003 435.921295,91.032112 
	C445.739014,90.188972 455.606873,88.874649 465.412598,89.156158 
	C489.727051,89.854187 513.075806,94.952248 535.238525,105.539650 
	C555.434326,115.187431 573.510498,127.618355 590.171997,142.518829 
	C611.912292,161.961319 629.396667,184.662399 643.949402,209.750107 
	C655.339233,229.385422 664.525391,250.027496 671.295288,271.714355 
	C676.637939,288.829224 680.421814,306.251770 683.172119,324.007050 
	C686.613159,346.221191 686.599609,368.521454 685.754700,390.762421 
	C685.011108,410.336273 681.529968,429.700104 675.825500,448.582336 
	C668.824036,471.757629 658.610962,493.419952 643.703186,512.434814 
	C626.958435,533.792786 606.238586,550.184021 580.498108,560.142883 
	C557.409424,569.075745 533.466492,570.449524 509.458405,568.739563 
	C478.679199,566.547302 450.602875,555.439148 424.860870,538.402466 
	C408.939117,527.865051 394.301788,515.779541 381.392487,501.767609 
	C366.636536,485.751373 353.496277,468.478119 342.761932,449.420319 
	C333.272675,432.573120 324.943604,415.225342 318.263367,396.648499 
M312.000000,314.564758 
	C312.666016,319.397278 313.071686,324.283051 314.047638,329.052124 
	C316.794525,342.474823 319.157410,356.020325 322.798767,369.206207 
	C329.585510,393.781921 339.921082,416.947449 352.547760,439.108917 
	C364.036713,459.273529 377.977264,477.588226 393.950836,494.351166 
	C399.649200,500.331207 405.716278,506.004486 411.993347,511.375671 
	C418.032501,516.543274 424.162811,521.810425 430.960358,525.840942 
	C443.386261,533.208679 456.019806,540.383972 469.142761,546.378662 
	C485.853210,554.012024 503.770599,558.104553 522.128418,558.850220 
	C538.661316,559.521729 554.584106,555.809387 570.185852,550.117554 
	C596.339355,540.576111 616.967712,523.725342 633.836731,502.249634 
	C648.772583,483.234985 659.044922,461.554199 665.899841,438.357117 
	C671.957642,417.857513 675.483459,396.860596 675.848938,375.501892 
	C676.039856,364.346344 674.979370,353.134125 673.909058,342.002777 
	C672.961426,332.147095 671.994507,322.177399 669.644348,312.599518 
	C666.053101,297.964386 661.694641,283.478058 656.879456,269.192322 
	C650.238770,249.490891 641.281494,230.747177 629.917603,213.335602 
	C622.058899,201.294617 613.967224,189.233047 604.549377,178.427231 
	C593.466553,165.711060 581.492493,153.579651 568.700012,142.598267 
	C555.263550,131.064011 539.912048,122.076744 523.578125,114.834557 
	C498.810364,103.852936 473.411987,97.388107 446.026978,100.918266 
	C431.970581,102.730247 418.620026,106.637589 405.882294,112.636040 
	C385.691437,122.144295 369.105133,136.181366 355.007111,153.407440 
	C341.675507,169.697067 331.895844,187.878326 324.776611,207.596985 
	C318.051453,226.224228 313.830811,245.335373 311.832520,265.092651 
	C310.188141,281.350616 309.770721,297.461853 312.000000,314.564758 
z"/>
<path fill="#EEF7F6" opacity="1.000000" stroke="none" 
	d="
M960.961914,569.000000 
	C940.071106,569.752686 920.001709,568.224426 900.636963,561.034729 
	C884.277710,554.960876 869.654968,546.220215 856.262634,534.950500 
	C836.501221,518.321350 822.792297,497.423401 812.214355,474.349487 
	C804.903564,458.402252 799.598145,441.622925 797.100708,424.192993 
	C795.249512,411.272583 794.201782,398.229858 793.050415,385.219147 
	C792.425720,378.159485 791.796448,371.030090 792.094360,363.971191 
	C793.283081,335.810272 796.485962,307.982910 804.497253,280.745880 
	C811.249390,257.789734 820.271912,235.879593 831.640137,214.927139 
	C841.391052,196.955444 853.173462,180.373810 866.526123,164.811951 
	C880.323486,148.731903 895.927856,134.692291 913.143799,122.590462 
	C927.356934,112.599411 942.787109,104.558205 959.393494,98.965858 
	C974.682922,93.817009 990.190125,90.688385 1006.417664,89.779373 
	C1028.662720,88.533279 1050.269043,90.273605 1071.243896,97.995888 
	C1086.210083,103.505989 1099.769287,111.407242 1112.114990,121.550232 
	C1132.423218,138.234955 1147.093750,159.132172 1157.890625,182.801102 
	C1165.649536,199.810562 1170.579956,217.719833 1174.167480,236.137421 
	C1179.050171,261.204590 1178.702026,286.478088 1177.650391,311.638977 
	C1176.957153,328.227295 1173.483765,344.787476 1170.252319,361.162292 
	C1164.512085,390.251099 1153.746338,417.660370 1139.015991,443.297119 
	C1130.680908,457.803284 1121.326782,471.878754 1111.039917,485.062317 
	C1101.902222,496.773010 1091.372925,507.551636 1080.492310,517.707214 
	C1068.547974,528.855530 1055.088379,538.129517 1040.711670,546.178772 
	C1024.992920,554.979309 1008.585571,561.729431 991.029785,565.333374 
	C981.329712,567.324768 971.323853,567.826721 960.961914,569.000000 
M900.646973,150.032288 
	C887.623901,162.643692 875.098145,175.624069 864.106873,190.173996 
	C846.263489,213.794266 832.554443,239.623077 822.206421,267.137421 
	C814.386597,287.929260 808.633179,309.388824 805.801453,331.623901 
	C803.924988,346.357391 802.595276,360.996216 802.922241,375.855591 
	C803.336487,394.683655 806.238525,413.040558 810.894653,431.271576 
	C818.742615,462.000763 832.561951,489.529694 853.752014,513.137634 
	C865.610840,526.349548 879.768311,536.929077 895.655579,544.777954 
	C907.904175,550.829163 920.950256,554.720886 934.543152,557.193665 
	C950.516113,560.099548 965.956360,558.553162 981.569092,555.201233 
	C999.347473,551.384338 1016.259521,545.212585 1031.549194,535.583374 
	C1045.208740,526.980835 1058.653931,517.725891 1070.846558,507.198669 
	C1081.947510,497.614014 1092.068848,486.580902 1101.105347,475.002563 
	C1111.295288,461.946198 1120.604248,448.033630 1128.844604,433.661133 
	C1143.627075,407.878723 1154.493164,380.342163 1160.289307,351.102875 
	C1163.502441,334.892975 1166.177246,318.503723 1167.746704,302.066620 
	C1168.760864,291.446106 1167.945801,280.529572 1166.845703,269.859558 
	C1165.501099,256.816498 1163.798096,243.707626 1160.841431,230.953781 
	C1153.596924,199.704468 1139.987915,171.366043 1118.597168,147.249069 
	C1106.173828,133.242233 1091.485352,122.006744 1074.478149,113.700966 
	C1059.651367,106.460007 1044.190063,101.514320 1027.899536,100.172371 
	C1008.016235,98.534470 988.762268,102.239212 969.853333,108.848732 
	C944.092529,117.853302 921.695984,132.100174 900.646973,150.032288 
z"/>
<path fill="#000000" opacity="1.000000" stroke="none" 
	d="
M1256.262207,530.238647 
	C1280.730835,507.071106 1308.514526,490.080872 1340.450439,480.310577 
	C1355.740479,475.632874 1371.638062,473.407166 1387.524170,475.189789 
	C1408.147217,477.503937 1427.098877,484.927856 1443.940552,497.395477 
	C1458.888672,508.461334 1470.833618,522.354065 1478.673218,538.929932 
	C1484.861206,552.013306 1489.308594,566.149963 1492.680908,580.260498 
	C1495.276855,591.122864 1495.618896,602.658508 1495.859863,613.918396 
	C1496.256226,632.421326 1492.924561,650.603149 1487.214600,668.090454 
	C1482.101685,683.748962 1476.116943,699.232056 1469.121216,714.137573 
	C1461.082275,731.265991 1450.049561,746.653076 1438.197876,761.494263 
	C1423.205566,780.268372 1405.587036,796.155762 1385.809814,809.411987 
	C1365.668213,822.912537 1343.775391,833.107361 1319.491699,836.943665 
	C1310.646240,838.341064 1301.625366,840.203064 1292.787476,839.767395 
	C1269.365356,838.612793 1248.005005,830.783264 1229.168335,816.632507 
	C1213.145386,804.595581 1201.272949,789.146606 1192.625000,771.156616 
	C1186.455200,758.321533 1182.348633,744.796387 1180.081299,730.780457 
	C1178.650513,721.936401 1176.966309,712.933167 1177.248291,704.060242 
	C1177.646240,691.543213 1178.889893,678.904846 1181.372314,666.642334 
	C1184.070679,653.313965 1187.876953,640.094849 1192.496826,627.296143 
	C1200.339355,605.569153 1210.928223,585.048035 1225.034912,566.702332 
	C1234.704590,554.127136 1245.639282,542.524597 1256.262207,530.238647 
z"/>
<path fill="#000000" opacity="1.000000" stroke="none" 
	d="
M256.681885,826.736816 
	C239.506973,835.639038 221.564590,840.413269 202.632446,839.853821 
	C186.061920,839.364136 170.121384,835.147095 154.583603,829.254578 
	C135.577942,822.046814 118.174370,811.990051 102.270027,799.554565 
	C82.899750,784.409119 65.951347,766.712830 52.152252,746.312378 
	C44.686764,735.275391 37.611691,723.844238 31.661812,711.940491 
	C20.699688,690.008972 12.980909,666.903259 8.882357,642.585938 
	C6.543644,628.710022 5.102787,614.782410 6.165829,600.845154 
	C7.518780,583.106995 11.286756,565.792053 18.248770,549.228027 
	C25.010798,533.139832 34.218636,518.752075 46.842190,506.751923 
	C63.127346,491.270966 82.332443,481.369354 104.507210,476.901978 
	C129.241989,471.918793 152.630234,476.771881 175.653244,485.272705 
	C197.699966,493.412994 217.150742,506.040100 235.204605,520.820862 
	C250.407532,533.267578 263.358337,547.952271 274.927399,563.785034 
	C285.491760,578.242920 294.891296,593.458374 302.324158,609.797546 
	C310.261444,627.245728 316.737061,645.213501 319.939758,664.173157 
	C321.941559,676.023560 323.720520,687.940918 324.836670,699.899475 
	C325.412079,706.064209 325.072144,712.538452 323.830414,718.603516 
	C320.993774,732.458557 318.074738,746.376343 313.841400,759.845093 
	C308.800507,775.883179 299.817505,789.862610 288.333130,802.311584 
	C279.206146,812.205200 268.939209,820.384949 256.681885,826.736816 
z"/>
<path fill="#000000" opacity="1.000000" stroke="none" 
	d="
M569.771057,716.726440 
	C588.083313,707.964722 605.739685,698.477783 624.277649,691.252686 
	C644.412903,683.405090 665.131348,676.754089 686.042908,671.295471 
	C701.959167,667.140808 718.545532,665.466736 734.887146,663.050476 
	C753.459534,660.304382 771.763550,663.006226 790.148804,665.851562 
	C821.853271,670.758118 852.343506,679.985229 881.602844,692.597412 
	C904.150940,702.316711 925.699036,714.413025 947.448608,725.912415 
	C971.218079,738.479919 992.785156,754.476685 1014.062317,770.760803 
	C1025.871460,779.798767 1037.003540,789.759460 1048.081543,799.704407 
	C1059.644531,810.084778 1071.269043,820.476074 1081.975586,831.711731 
	C1096.369629,846.817200 1110.034912,862.626709 1123.788330,878.330811 
	C1147.768311,905.712097 1168.504395,935.533813 1188.296509,965.982239 
	C1198.727051,982.028442 1208.389526,998.615173 1217.640259,1015.376404 
	C1228.605103,1035.243652 1239.633545,1055.159668 1249.049072,1075.778442 
	C1263.102783,1106.554199 1276.212524,1137.785278 1288.835571,1169.179810 
	C1294.859985,1184.162598 1299.584717,1199.781982 1303.491699,1215.463379 
	C1306.227539,1226.444214 1306.713257,1238.004150 1307.945923,1249.333496 
	C1308.586304,1255.219238 1309.031982,1261.171631 1308.937012,1267.083862 
	C1308.520020,1293.042725 1301.522583,1316.968384 1287.583984,1339.087891 
	C1273.339722,1361.692749 1254.042969,1378.364014 1230.276733,1389.822876 
	C1215.379883,1397.005371 1199.489380,1401.022827 1182.774292,1402.154663 
	C1167.443848,1403.192749 1152.401733,1401.290283 1137.233765,1400.086914 
	C1106.088989,1397.615601 1076.253296,1388.927124 1046.142212,1381.548340 
	C1014.729858,1373.850586 983.387878,1365.865967 952.017151,1357.998901 
	C916.589355,1349.114502 881.201782,1340.065674 845.720642,1331.399780 
	C828.654175,1327.231445 811.559570,1322.717773 794.207031,1320.317749 
	C778.578918,1318.156494 762.583557,1318.606323 746.746033,1318.013550 
	C718.579773,1316.959229 691.310669,1322.430664 664.214050,1329.329712 
	C631.469055,1337.666504 598.672974,1345.802734 565.891602,1353.996094 
	C532.014893,1362.463379 498.147400,1370.968994 464.241211,1379.317017 
	C439.854248,1385.321289 415.507629,1391.551880 390.949646,1396.771729 
	C379.197784,1399.269653 367.010376,1399.791504 354.995789,1400.956543 
	C345.845734,1401.843628 336.628326,1403.163696 327.490936,1402.847168 
	C298.007629,1401.825684 271.124664,1393.014404 247.371078,1374.984619 
	C228.915863,1360.976807 214.930237,1343.503906 205.317932,1322.591064 
	C199.027206,1308.904541 194.631424,1294.575439 193.991501,1279.331787 
	C193.701019,1272.412354 192.486130,1265.411133 193.170288,1258.595459 
	C194.760849,1242.750610 196.445190,1226.835693 199.554977,1211.240845 
	C204.855896,1184.658203 215.705765,1159.830444 226.551849,1135.170166 
	C239.876740,1104.874023 253.222076,1074.520386 268.286072,1045.075317 
	C281.386902,1019.467773 296.164673,994.630554 311.542603,970.300659 
	C326.284882,946.976318 342.363342,924.459229 358.612457,902.139099 
	C367.820190,889.491211 378.214203,877.649780 388.678528,865.987549 
	C402.911133,850.125610 417.069824,834.099670 432.459869,819.400024 
	C449.270935,803.343018 467.336792,788.585022 485.064636,773.506348 
	C505.077637,756.484070 527.169312,742.351562 549.316162,728.345764 
	C555.831726,724.225342 562.762939,720.762085 569.771057,716.726440 
z"/>
<path fill="#000000" opacity="1.000000" stroke="none" 
	d="
M311.999878,314.101349 
	C309.770721,297.461853 310.188141,281.350616 311.832520,265.092651 
	C313.830811,245.335373 318.051453,226.224228 324.776611,207.596985 
	C331.895844,187.878326 341.675507,169.697067 355.007111,153.407440 
	C369.105133,136.181366 385.691437,122.144295 405.882294,112.636040 
	C418.620026,106.637589 431.970581,102.730247 446.026978,100.918266 
	C473.411987,97.388107 498.810364,103.852936 523.578125,114.834557 
	C539.912048,122.076744 555.263550,131.064011 568.700012,142.598267 
	C581.492493,153.579651 593.466553,165.711060 604.549377,178.427231 
	C613.967224,189.233047 622.058899,201.294617 629.917603,213.335602 
	C641.281494,230.747177 650.238770,249.490891 656.879456,269.192322 
	C661.694641,283.478058 666.053101,297.964386 669.644348,312.599518 
	C671.994507,322.177399 672.961426,332.147095 673.909058,342.002777 
	C674.979370,353.134125 676.039856,364.346344 675.848938,375.501892 
	C675.483459,396.860596 671.957642,417.857513 665.899841,438.357117 
	C659.044922,461.554199 648.772583,483.234985 633.836731,502.249634 
	C616.967712,523.725342 596.339355,540.576111 570.185852,550.117554 
	C554.584106,555.809387 538.661316,559.521729 522.128418,558.850220 
	C503.770599,558.104553 485.853210,554.012024 469.142761,546.378662 
	C456.019806,540.383972 443.386261,533.208679 430.960358,525.840942 
	C424.162811,521.810425 418.032501,516.543274 411.993347,511.375671 
	C405.716278,506.004486 399.649200,500.331207 393.950836,494.351166 
	C377.977264,477.588226 364.036713,459.273529 352.547760,439.108917 
	C339.921082,416.947449 329.585510,393.781921 322.798767,369.206207 
	C319.157410,356.020325 316.794525,342.474823 314.047638,329.052124 
	C313.071686,324.283051 312.666016,319.397278 311.999878,314.101349 
z"/>
<path fill="#000000" opacity="1.000000" stroke="none" 
	d="
M901.006226,149.999146 
	C921.695984,132.100174 944.092529,117.853302 969.853333,108.848732 
	C988.762268,102.239212 1008.016235,98.534470 1027.899536,100.172371 
	C1044.190063,101.514320 1059.651367,106.460007 1074.478149,113.700966 
	C1091.485352,122.006744 1106.173828,133.242233 1118.597168,147.249069 
	C1139.987915,171.366043 1153.596924,199.704468 1160.841431,230.953781 
	C1163.798096,243.707626 1165.501099,256.816498 1166.845703,269.859558 
	C1167.945801,280.529572 1168.760864,291.446106 1167.746704,302.066620 
	C1166.177246,318.503723 1163.502441,334.892975 1160.289307,351.102875 
	C1154.493164,380.342163 1143.627075,407.878723 1128.844604,433.661133 
	C1120.604248,448.033630 1111.295288,461.946198 1101.105347,475.002563 
	C1092.068848,486.580902 1081.947510,497.614014 1070.846558,507.198669 
	C1058.653931,517.725891 1045.208740,526.980835 1031.549194,535.583374 
	C1016.259521,545.212585 999.347473,551.384338 981.569092,555.201233 
	C965.956360,558.553162 950.516113,560.099548 934.543152,557.193665 
	C920.950256,554.720886 907.904175,550.829163 895.655579,544.777954 
	C879.768311,536.929077 865.610840,526.349548 853.752014,513.137634 
	C832.561951,489.529694 818.742615,462.000763 810.894653,431.271576 
	C806.238525,413.040558 803.336487,394.683655 802.922241,375.855591 
	C802.595276,360.996216 803.924988,346.357391 805.801453,331.623901 
	C808.633179,309.388824 814.386597,287.929260 822.206421,267.137421 
	C832.554443,239.623077 846.263489,213.794266 864.106873,190.173996 
	C875.098145,175.624069 887.623901,162.643692 901.006226,149.999146 
z"/>
</svg>