<svg version="1.1" id="Layer_1" xmlns="http://www.w3.org/2000/svg" xmlns:xlink="http://www.w3.org/1999/xlink" x="0px" y="0px"
	 width="100%" viewBox="0 0 512 512" enable-background="new 0 0 512 512" xml:space="preserve">
<path fill="#000000" opacity="1.000000" stroke="none" 
	d="
M513.000000,255.000000 
	C513.000000,263.020905 513.000000,271.041809 512.609985,279.673401 
	C511.813354,282.849243 511.562225,285.450592 510.975342,287.973846 
	C506.561615,306.951385 498.002777,323.860504 483.899689,337.337463 
	C475.514374,345.350494 465.860748,352.036316 456.831390,359.275482 
	C458.606873,362.985352 460.807220,367.601501 463.023254,372.210114 
	C470.665344,388.103119 471.370636,404.951050 467.522369,421.574280 
	C462.670563,442.532440 450.912140,460.245392 436.992371,476.327942 
	C427.217285,487.621887 415.188019,496.154968 401.415863,502.250275 
	C384.844452,509.584412 367.358368,511.423950 349.926941,508.624115 
	C335.928833,506.375763 322.325073,501.430878 308.690857,497.215027 
	C288.419464,490.946930 268.404114,484.190826 246.532608,486.864868 
	C230.691879,488.801605 215.821793,493.776489 200.956299,499.020905 
	C184.122192,504.959900 167.137543,510.157227 149.033264,509.957672 
	C145.612991,509.919952 142.205063,509.152222 138.780624,509.033600 
	C128.091934,508.663544 117.979088,505.433472 108.763023,500.697937 
	C95.258690,493.758942 83.389748,484.447662 73.669853,472.366394 
	C61.951611,457.801331 51.511433,442.672699 46.788574,424.320923 
	C43.669060,412.199341 43.601665,399.767059 46.894444,387.844635 
	C49.594372,378.068756 54.315971,368.851257 58.300388,358.992920 
	C53.353821,355.678192 47.427044,352.086792 41.917412,347.941040 
	C27.209990,336.874329 15.696176,323.180420 9.012422,305.838654 
	C6.112355,298.314117 3.657224,290.618134 1.000000,283.000000 
	C1.000000,273.312439 1.000000,263.624878 1.382571,253.336166 
	C2.509236,248.936005 3.446864,245.163177 3.965041,241.333603 
	C6.696187,221.149170 11.662069,201.412079 18.570068,182.384583 
	C24.118372,167.102249 31.294579,152.253433 39.223129,138.034561 
	C48.148781,122.027504 60.570621,108.564476 77.806114,101.254845 
	C86.864464,97.413177 96.925301,95.935303 106.714912,93.341957 
	C109.163429,87.070213 112.102798,79.787346 114.858109,72.435501 
	C121.926414,53.575546 132.216385,36.981735 147.179565,23.180092 
	C169.418381,2.667613 201.121857,-1.695127 227.912460,11.669298 
	C236.577591,15.991875 244.169662,22.465574 252.224792,27.936398 
	C254.497437,26.039587 257.409546,23.639240 260.289246,21.200647 
	C278.223602,6.013551 299.131042,1.266273 321.786530,5.172106 
	C343.650116,8.941417 360.154785,21.530037 373.071686,39.313629 
	C385.520935,56.453358 393.033813,75.817421 399.186646,95.030350 
	C406.764648,95.402489 414.184479,94.958588 421.282990,96.263031 
	C445.071716,100.634491 461.933014,115.593842 474.780365,134.837067 
	C487.311188,153.606262 496.019684,174.430756 501.081665,196.516937 
	C504.789734,212.695801 507.722321,229.052338 511.006287,245.328522 
	C511.657318,248.555084 512.334778,251.776306 513.000000,255.000000 
M117.991898,381.514740 
	C116.082535,383.754517 113.983948,385.861237 112.298393,388.258392 
	C106.665916,396.268738 103.458290,404.572021 107.817116,414.531921 
	C112.156212,424.446747 118.795013,432.476044 126.401505,439.897552 
	C135.668503,448.939148 147.195724,451.300354 158.998444,448.245544 
	C175.093201,444.079926 190.574432,437.557404 206.653076,433.311615 
	C219.579010,429.898407 232.925613,427.635254 246.230103,426.250397 
	C255.509491,425.284515 265.129395,425.944611 274.423340,427.183014 
	C285.897156,428.711823 297.339661,431.035706 308.526886,434.022766 
	C324.774536,438.361053 340.685425,443.961121 356.934753,448.292145 
	C364.350098,450.268585 371.907043,449.361694 379.133545,445.556274 
	C390.999146,439.307892 397.921448,428.886841 403.933868,417.660461 
	C405.858734,414.066406 407.325684,409.967682 407.873932,405.946045 
	C409.316650,395.362762 404.003754,387.134033 397.236023,379.802490 
	C387.881866,369.669067 376.155762,362.579102 364.853027,354.904907 
	C353.352264,347.096313 341.244537,339.736084 331.314667,330.190430 
	C322.211761,321.439667 315.454132,310.182068 308.030060,299.767487 
	C296.387329,283.434967 283.712799,268.710022 261.971619,266.455475 
	C249.259567,265.137207 237.602386,268.031433 227.089432,275.393402 
	C217.091568,282.394623 210.674835,292.453400 203.966415,302.280029 
	C197.234665,312.140900 191.374023,322.812653 183.395340,331.542084 
	C176.149139,339.470062 166.689026,345.425079 157.987823,351.960846 
	C144.922379,361.774719 131.667282,371.336151 117.991898,381.514740 
M343.960358,123.663925 
	C342.637085,119.207451 341.475891,114.694992 339.959869,110.305092 
	C335.561584,97.569168 331.486023,84.650238 322.962158,73.850487 
	C319.282166,69.187897 315.123535,65.347183 308.584229,64.927048 
	C301.323761,64.460571 296.934692,68.818565 293.093262,73.737450 
	C284.661621,84.533936 280.044403,97.270927 276.041321,110.148010 
	C270.620422,127.585938 267.051025,145.395218 264.769653,163.587296 
	C262.428223,182.258362 266.852051,197.723160 281.902771,209.322250 
	C300.257904,223.467896 323.888794,220.525253 339.674438,204.625031 
	C348.324615,195.912064 352.212067,184.703293 351.910126,172.388107 
	C351.766846,166.544922 350.947632,160.676071 349.938141,154.905701 
	C348.159576,144.739197 346.000183,134.639297 343.960358,123.663925 
M169.471649,207.983795 
	C178.044785,215.647369 188.112885,218.693298 199.518051,218.027466 
	C215.367661,217.102173 226.868546,209.230179 234.968964,196.013275 
	C242.024307,184.501526 242.091125,171.816513 239.873077,159.131638 
	C237.682587,146.604401 235.069229,134.117020 231.896820,121.803993 
	C227.729324,105.628723 222.850876,89.525078 212.876907,75.825287 
	C203.521988,62.975777 192.735184,59.547550 181.548492,74.781929 
	C174.178024,84.819244 169.677277,96.156937 166.184814,107.766861 
	C162.025467,121.593719 159.089996,135.807785 156.045517,149.944809 
	C153.713913,160.771637 151.387756,171.752304 154.053009,182.867218 
	C156.383072,192.584290 160.376160,201.454086 169.471649,207.983795 
M365.999817,256.399902 
	C362.704102,271.804718 367.368378,285.212433 377.898743,296.087738 
	C386.718628,305.196564 398.019684,309.911438 411.223389,309.042084 
	C426.974762,308.005066 438.950623,300.571716 446.801361,287.260681 
	C452.220825,278.071930 454.529022,267.919464 452.096771,256.933380 
	C449.550842,245.434128 448.598907,233.532135 445.427307,222.233673 
	C441.372162,207.787582 436.276978,193.575027 430.684845,179.641159 
	C427.446533,171.572327 422.795258,163.915100 415.750854,158.255005 
	C412.116486,155.334824 408.213440,154.825790 404.052917,157.374619 
	C397.219543,161.560959 393.054016,168.129868 390.164276,175.073288 
	C384.269592,189.236816 378.634277,203.584213 374.177063,218.246475 
	C370.492584,230.367004 368.655579,243.049194 365.999817,256.399902 
M74.036270,207.687469 
	C69.168144,224.371735 64.057510,240.927185 61.719803,258.308472 
	C59.574753,274.257355 64.431244,287.442841 75.652298,297.823151 
	C89.497673,310.631165 109.403931,312.974976 126.016335,303.578430 
	C140.911758,295.153076 148.534531,282.163361 148.703110,265.611053 
	C148.800690,256.030914 146.781372,246.183624 144.200562,236.876450 
	C139.752884,220.836746 134.458649,205.005402 128.872681,189.317001 
	C125.148415,178.857254 120.253944,168.864761 112.858162,160.275757 
	C107.494324,154.046509 101.633118,154.387421 96.014397,161.966812 
	C85.923584,175.578857 80.272972,191.326996 74.036270,207.687469 
z"/>
<path fill="#FFFFFF" opacity="1.000000" stroke="none" 
	d="
M513.000000,254.531342 
	C512.334778,251.776306 511.657318,248.555084 511.006287,245.328522 
	C507.722321,229.052338 504.789734,212.695801 501.081665,196.516937 
	C496.019684,174.430756 487.311188,153.606262 474.780365,134.837067 
	C461.933014,115.593842 445.071716,100.634491 421.282990,96.263031 
	C414.184479,94.958588 406.764648,95.402489 399.186646,95.030350 
	C393.033813,75.817421 385.520935,56.453358 373.071686,39.313629 
	C360.154785,21.530037 343.650116,8.941417 321.786530,5.172106 
	C299.131042,1.266273 278.223602,6.013551 260.289246,21.200647 
	C257.409546,23.639240 254.497437,26.039587 252.224792,27.936398 
	C244.169662,22.465574 236.577591,15.991875 227.912460,11.669298 
	C201.121857,-1.695127 169.418381,2.667613 147.179565,23.180092 
	C132.216385,36.981735 121.926414,53.575546 114.858109,72.435501 
	C112.102798,79.787346 109.163429,87.070213 106.714912,93.341957 
	C96.925301,95.935303 86.864464,97.413177 77.806114,101.254845 
	C60.570621,108.564476 48.148781,122.027504 39.223129,138.034561 
	C31.294579,152.253433 24.118372,167.102249 18.570068,182.384583 
	C11.662069,201.412079 6.696187,221.149170 3.965041,241.333603 
	C3.446864,245.163177 2.509236,248.936005 1.382571,252.867508 
	C1.000000,169.036102 1.000000,85.072197 1.000000,1.054148 
	C171.557220,1.054148 342.114441,1.054148 513.000000,1.054148 
	C513.000000,85.353943 513.000000,169.708313 513.000000,254.531342 
z"/>
<path fill="#FFFFFF" opacity="1.000000" stroke="none" 
	d="
M1.000000,283.468658 
	C3.657224,290.618134 6.112355,298.314117 9.012422,305.838654 
	C15.696176,323.180420 27.209990,336.874329 41.917412,347.941040 
	C47.427044,352.086792 53.353821,355.678192 58.300388,358.992920 
	C54.315971,368.851257 49.594372,378.068756 46.894444,387.844635 
	C43.601665,399.767059 43.669060,412.199341 46.788574,424.320923 
	C51.511433,442.672699 61.951611,457.801331 73.669853,472.366394 
	C83.389748,484.447662 95.258690,493.758942 108.763023,500.697937 
	C117.979088,505.433472 128.091934,508.663544 138.780624,509.033600 
	C142.205063,509.152222 145.612991,509.919952 149.033264,509.957672 
	C167.137543,510.157227 184.122192,504.959900 200.956299,499.020905 
	C215.821793,493.776489 230.691879,488.801605 246.532608,486.864868 
	C268.404114,484.190826 288.419464,490.946930 308.690857,497.215027 
	C322.325073,501.430878 335.928833,506.375763 349.926941,508.624115 
	C367.358368,511.423950 384.844452,509.584412 401.415863,502.250275 
	C415.188019,496.154968 427.217285,487.621887 436.992371,476.327942 
	C450.912140,460.245392 462.670563,442.532440 467.522369,421.574280 
	C471.370636,404.951050 470.665344,388.103119 463.023254,372.210114 
	C460.807220,367.601501 458.606873,362.985352 456.831390,359.275482 
	C465.860748,352.036316 475.514374,345.350494 483.899689,337.337463 
	C498.002777,323.860504 506.561615,306.951385 510.975342,287.973846 
	C511.562225,285.450592 511.813354,282.849243 512.609985,280.142029 
	C513.000000,357.631805 513.000000,435.263580 513.000000,512.947693 
	C342.444824,512.947693 171.889648,512.947693 1.000000,512.947693 
	C1.000000,436.646088 1.000000,360.291718 1.000000,283.468658 
z"/>
<path fill="#FFFFFF" opacity="1.000000" stroke="none" 
	d="
M118.242371,381.259827 
	C131.667282,371.336151 144.922379,361.774719 157.987823,351.960846 
	C166.689026,345.425079 176.149139,339.470062 183.395340,331.542084 
	C191.374023,322.812653 197.234665,312.140900 203.966415,302.280029 
	C210.674835,292.453400 217.091568,282.394623 227.089432,275.393402 
	C237.602386,268.031433 249.259567,265.137207 261.971619,266.455475 
	C283.712799,268.710022 296.387329,283.434967 308.030060,299.767487 
	C315.454132,310.182068 322.211761,321.439667 331.314667,330.190430 
	C341.244537,339.736084 353.352264,347.096313 364.853027,354.904907 
	C376.155762,362.579102 387.881866,369.669067 397.236023,379.802490 
	C404.003754,387.134033 409.316650,395.362762 407.873932,405.946045 
	C407.325684,409.967682 405.858734,414.066406 403.933868,417.660461 
	C397.921448,428.886841 390.999146,439.307892 379.133545,445.556274 
	C371.907043,449.361694 364.350098,450.268585 356.934753,448.292145 
	C340.685425,443.961121 324.774536,438.361053 308.526886,434.022766 
	C297.339661,431.035706 285.897156,428.711823 274.423340,427.183014 
	C265.129395,425.944611 255.509491,425.284515 246.230103,426.250397 
	C232.925613,427.635254 219.579010,429.898407 206.653076,433.311615 
	C190.574432,437.557404 175.093201,444.079926 158.998444,448.245544 
	C147.195724,451.300354 135.668503,448.939148 126.401505,439.897552 
	C118.795013,432.476044 112.156212,424.446747 107.817116,414.531921 
	C103.458290,404.572021 106.665916,396.268738 112.298393,388.258392 
	C113.983948,385.861237 116.082535,383.754517 118.242371,381.259827 
z"/>
<path fill="#FFFFFF" opacity="1.000000" stroke="none" 
	d="
M343.980286,124.087715 
	C346.000183,134.639297 348.159576,144.739197 349.938141,154.905701 
	C350.947632,160.676071 351.766846,166.544922 351.910126,172.388107 
	C352.212067,184.703293 348.324615,195.912064 339.674438,204.625031 
	C323.888794,220.525253 300.257904,223.467896 281.902771,209.322250 
	C266.852051,197.723160 262.428223,182.258362 264.769653,163.587296 
	C267.051025,145.395218 270.620422,127.585938 276.041321,110.148010 
	C280.044403,97.270927 284.661621,84.533936 293.093262,73.737450 
	C296.934692,68.818565 301.323761,64.460571 308.584229,64.927048 
	C315.123535,65.347183 319.282166,69.187897 322.962158,73.850487 
	C331.486023,84.650238 335.561584,97.569168 339.959869,110.305092 
	C341.475891,114.694992 342.637085,119.207451 343.980286,124.087715 
z"/>
<path fill="#FFFFFF" opacity="1.000000" stroke="none" 
	d="
M169.217560,207.718643 
	C160.376160,201.454086 156.383072,192.584290 154.053009,182.867218 
	C151.387756,171.752304 153.713913,160.771637 156.045517,149.944809 
	C159.089996,135.807785 162.025467,121.593719 166.184814,107.766861 
	C169.677277,96.156937 174.178024,84.819244 181.548492,74.781929 
	C192.735184,59.547550 203.521988,62.975777 212.876907,75.825287 
	C222.850876,89.525078 227.729324,105.628723 231.896820,121.803993 
	C235.069229,134.117020 237.682587,146.604401 239.873077,159.131638 
	C242.091125,171.816513 242.024307,184.501526 234.968964,196.013275 
	C226.868546,209.230179 215.367661,217.102173 199.518051,218.027466 
	C188.112885,218.693298 178.044785,215.647369 169.217560,207.718643 
z"/>
<path fill="#FFFFFF" opacity="1.000000" stroke="none" 
	d="
M365.999908,255.941208 
	C368.655579,243.049194 370.492584,230.367004 374.177063,218.246475 
	C378.634277,203.584213 384.269592,189.236816 390.164276,175.073288 
	C393.054016,168.129868 397.219543,161.560959 404.052917,157.374619 
	C408.213440,154.825790 412.116486,155.334824 415.750854,158.255005 
	C422.795258,163.915100 427.446533,171.572327 430.684845,179.641159 
	C436.276978,193.575027 441.372162,207.787582 445.427307,222.233673 
	C448.598907,233.532135 449.550842,245.434128 452.096771,256.933380 
	C454.529022,267.919464 452.220825,278.071930 446.801361,287.260681 
	C438.950623,300.571716 426.974762,308.005066 411.223389,309.042084 
	C398.019684,309.911438 386.718628,305.196564 377.898743,296.087738 
	C367.368378,285.212433 362.704102,271.804718 365.999908,255.941208 
z"/>
<path fill="#FFFFFF" opacity="1.000000" stroke="none" 
	d="
M74.263962,207.346832 
	C80.272972,191.326996 85.923584,175.578857 96.014397,161.966812 
	C101.633118,154.387421 107.494324,154.046509 112.858162,160.275757 
	C120.253944,168.864761 125.148415,178.857254 128.872681,189.317001 
	C134.458649,205.005402 139.752884,220.836746 144.200562,236.876450 
	C146.781372,246.183624 148.800690,256.030914 148.703110,265.611053 
	C148.534531,282.163361 140.911758,295.153076 126.016335,303.578430 
	C109.403931,312.974976 89.497673,310.631165 75.652298,297.823151 
	C64.431244,287.442841 59.574753,274.257355 61.719803,258.308472 
	C64.057510,240.927185 69.168144,224.371735 74.263962,207.346832 
z"/>
</svg>